<svg xmlns="http://www.w3.org/2000/svg" width="390" height="488.722" viewBox="0 0 390 488.722">
  <g id="stacked-peaks-haikei_6_" data-name="stacked-peaks-haikei(6)" transform="translate(0 -48.079)">
    <path id="Pfad_1231" data-name="Pfad 1231" d="M0,31.319H78l78-8.265,78,8.265,78-8.265,78,4.35V0H0Z" transform="translate(0 48.079)" fill="#fff"/>
    <path id="Pfad_1232" data-name="Pfad 1232" d="M0,220.828l78,21.512,78-43.023,78,58.874,78-58.874,78,43.023V62.322L312,51,234,72.512,156,51,78,72.512H0Z" transform="translate(0 4.622)" fill="#e1ecd6"/>
    <path id="Pfad_1233" data-name="Pfad 1233" d="M0,256.989l78,15.851,78,5.661,78,48.684,78-54.345,78,5.661V223.023L312,180l-78,58.874L156,180,78,223.023,0,201.512Z" transform="translate(0 21.674)" fill="#bee3c2"/>
    <path id="Pfad_1234" data-name="Pfad 1234" d="M0,339.971l78,27.172h78l78,43.023,78-27.172,78-11.322V267.512l-78-5.661L234,316.2l-78-48.684-78-5.661L0,246Z" transform="translate(0 30.398)" fill="#80ded1"/>
    <path id="Pfad_1235" data-name="Pfad 1235" d="M0,495.7H390V358.7l-78,11.322L234,397.2l-78-43.023H78L0,327Z" transform="translate(0 41.105)" fill="#42d2c1"/>
  </g>
</svg>
