<svg xmlns="http://www.w3.org/2000/svg" width="1921" height="628.198" viewBox="0 0 1921 628.198">
  <g id="stacked-peaks-haikei_5_" data-name="stacked-peaks-haikei(5)" transform="translate(0 5.75)">
    <path id="Pfad_1220" data-name="Pfad 1220" d="M0,132.75l175.091,39.294,174.091-84.96L524.273,66.906l174.091,72.216,175.091,6.372L1047.545,106.2l175.091,53.1,174.091-39.294,175.091-26.55,174.091,59.472L1921,120.006V0H0Z" transform="translate(0 9.408)" fill="#fff"/>
    <path id="Pfad_1221" data-name="Pfad 1221" d="M0,287.719,175.091,380.3,349.182,263.158,524.273,146.02,698.364,404.857l175.091-69.9,174.091,22.672,175.091,35.9,174.091-130.363,175.091-11.336,174.091,83.13L1921,240.486v-85.02l-175.091,58.569-174.091-105.8-175.091,47.233-174.091,69.9L1047.545,130.9l-174.091,69.9L698.364,189.474,524.273,61,349.182,96.9,175.091,248.043,0,178.138Z" transform="translate(0 -66.75)" fill="#e1ecd6"/>
    <path id="Pfad_1222" data-name="Pfad 1222" d="M0,290.911l175.091,26.55,174.091-46.728L524.273,165.6,698.364,330.205l175.091-39.294,174.091-12.744,175.091,78.588L1396.727,231.44l175.091,39.294,174.091,26.55L1921,212.324V157.1l-175.091,53.1-174.091-46.728-175.091,6.372-174.091,73.278-175.091-20.178L873.455,210.2,698.364,249.494,524.273,104,349.182,169.844,175.091,235.688,0,183.65Z" transform="translate(0 -27.145)" fill="#bee3c2"/>
    <path id="Pfad_1223" data-name="Pfad 1223" d="M0,445.677l175.091-6.372L349.182,544.443,524.273,307.618,698.364,439.305l175.091,19.116,174.091,32.922,175.091,32.922,174.091-117.882,175.091-26.55,174.091,183.725L1921,326.733V206.728l-175.091,84.96-174.091-26.55-175.091-39.294L1222.636,351.159l-175.091-78.588L873.455,285.316,698.364,324.609,524.273,160,349.182,265.138,175.091,311.866,0,285.316Z" transform="translate(0 -27.132)" fill="#8edbbb"/>
    <path id="Pfad_1224" data-name="Pfad 1224" d="M0,641.087H1921V316.116L1745.909,552.941,1571.818,369.216l-175.091,26.55L1222.636,513.647l-175.091-32.922L873.455,447.8,698.364,428.688,524.273,297,349.182,533.825,175.091,428.688,0,435.06Z" transform="translate(0 -18.639)" fill="#42d2c1"/>
  </g>
</svg>
