<svg xmlns="http://www.w3.org/2000/svg" version="1.1" xmlns:xlink="http://www.w3.org/1999/xlink" xmlns:svgjs="http://svgjs.com/svgjs" width="1372" height="324" preserveAspectRatio="none" viewBox="0 0 1372 324"><g mask="url(&quot;#SvgjsMask1000&quot;)" fill="none"><rect width="1372" height="324" x="0" y="0" fill="#f4f3ee"></rect><path d="M0 61.94C12.94 30.09 8.88 18.37 32.91 0C49.38 -12.6 56.95 0 81 0C121.5 0 121.5 0 162 0C198.98 0 201.73 -4.89 235.96 0C242.23 0.9 236.71 10.28 243 11.57C280.73 19.28 288.48 22.68 324 18C332.43 16.89 322.53 1.86 330.89 0C363.03 -7.14 367.94 0 405 0C445.5 0 445.5 0 486 0C526.5 0 526.5 0 567 0C607.5 0 607.5 0 648 0C688.5 0 688.5 0 729 0C769.5 0 769.5 0 810 0C850.5 0 850.5 0 891 0C931.5 0 931.5 0 972 0C1012.5 0 1012.5 0 1053 0C1093.5 0 1093.5 0 1134 0C1165.26 0 1181.27 -17.6 1196.51 0C1216.34 22.9 1196.35 42.37 1204.13 81C1205.6 88.3 1207.67 90.88 1215 91.87C1253.61 97.08 1257.38 97.8 1296 93.39C1304.99 92.36 1310.23 87.73 1310.23 81C1310.23 73.18 1303.25 72.53 1296 64.29C1267.61 32.03 1238.96 19.32 1238.96 0C1238.96 -12.82 1267.48 0 1296 0C1336.5 0 1356.75 -20.25 1377 0C1397.25 20.25 1377 40.5 1377 81C1377 116.3 1380.77 117.7 1377 151.59C1376.27 158.2 1368 156.71 1368 162C1368 167.53 1376.23 166.3 1377 173.22C1380.73 206.8 1377 208.11 1377 243C1377 283.5 1397.25 303.75 1377 324C1356.75 344.25 1336.5 324 1296 324C1255.5 324 1255.5 324 1215 324C1174.5 324 1174.5 324 1134 324C1093.5 324 1093.5 324 1053 324C1012.5 324 1012.5 324 972 324C931.5 324 931.5 324 891 324C850.5 324 850.5 324 810 324C771.69 324 745.03 343.14 733.38 324C720.38 302.64 762.24 277.61 760.7 243C760.05 228.33 746.26 230.18 729 225.43C689.91 214.66 682.88 205.9 648 211.95C632.25 214.68 639.71 228.93 627.75 243C599.21 276.57 600.96 280.38 567 307.24C549.75 320.88 546.93 319.53 525.34 324C506.43 327.91 505.67 324 486 324C445.5 324 445.5 324 405 324C364.5 324 364.5 324 324 324C283.5 324 283.5 324 243 324C202.5 324 202.5 324 162 324C121.5 324 121.5 324 81 324C40.5 324 23.93 340.57 0 324C-16.57 312.53 -8.25 292.32 0 267.92C5.44 251.82 27.38 258.64 27.38 243C27.38 211.47 11.85 208.63 0 173.57C-1.84 168.13 0 167.78 0 162C0 121.5 0 121.5 0 81C0 71.47 -3.52 70.59 0 61.94" stroke="rgba(255, 255, 255, 1)" stroke-width="2"></path><path d="M81 61.56C58.89 61.56 32.4 72.11 32.4 81C32.4 89.67 58.31 96.68 81 96.68C91.61 96.68 99 89.32 99 81C99 71.76 92.19 61.56 81 61.56" stroke="rgba(255, 255, 255, 1)" stroke-width="2"></path><path d="M729 70.2C727.34 70.2 724.85 76.33 724.85 81C724.85 82.94 727.09 83.42 729 83.42C730.34 83.42 731.35 82.55 731.35 81C731.35 75.94 730.59 70.2 729 70.2" stroke="rgba(255, 255, 255, 1)" stroke-width="2"></path><path d="M891 72.54C886.17 72.54 885.4 75.73 883.34 81C867.89 120.46 860.58 120.54 855.97 162C851.57 201.54 852.75 207.05 865.32 243C870.26 257.12 879.59 262.15 891 262.15C899.45 262.15 902.47 254.3 905.04 243C913.84 204.23 911.79 202.61 913.74 162C915.68 121.61 921.63 115.71 912.81 81C910.26 70.98 900.9 72.54 891 72.54" stroke="rgba(255, 255, 255, 1)" stroke-width="2"></path><path d="M162 122.49C140.99 122.49 126 140.6 126 162C126 189.28 139.55 219.86 162 219.86C191.3 219.86 229.5 187.9 229.5 162C229.5 139.21 192.74 122.49 162 122.49" stroke="rgba(255, 255, 255, 1)" stroke-width="2"></path><path d="M324 228.87C313.37 228.87 302.3 233.95 302.3 243C302.3 255.83 313.61 272.63 324 272.63C333.95 272.63 342.98 256.08 342.98 243C342.98 234.2 333.71 228.87 324 228.87" stroke="rgba(255, 255, 255, 1)" stroke-width="2"></path><path d="M351 81C369.23 45.75 354.25 29.6 373.98 0C381.25 -10.9 389.49 0 405 0C438.13 0 440.46 -5.6 471.27 0C480.96 1.76 480.47 5.98 486 14.73C506.06 46.48 499.08 52.36 522.45 81C539.58 101.99 544.1 114 567 114C592.58 114 619.41 102.21 619.41 81C619.41 51.44 598.15 39.62 567 12.46C551.7 -0.88 526.5 3.19 526.5 0C526.5 -3.04 546.75 0 567 0C607.5 0 607.5 0 648 0C679.5 0 705.85 -16.73 711 0C718.31 23.77 667.7 48.06 672.92 81C676.7 104.88 703.2 113.64 729 113.64C747.09 113.64 753.99 101.41 760.7 81C772.68 44.59 750.34 26.35 766.38 0C774.99 -14.15 788.19 0 810 0C850.5 0 850.5 0 891 0C931.5 0 931.5 0 972 0C1012.5 0 1012.5 0 1053 0C1093.5 0 1093.5 0 1134 0C1154.25 0 1166.94 -13.48 1174.5 0C1189.66 27.02 1166.94 45.02 1179.44 81C1187.19 103.3 1192.68 109.63 1215 116.56C1250.96 127.73 1259.53 127.79 1296 117.21C1320.83 110.01 1337.59 100.66 1337.59 81C1337.59 58.12 1317 56.4 1296 32.14C1281.94 15.9 1267.48 9.66 1267.48 0C1267.48 -6.41 1281.74 0 1296 0C1336.5 0 1356.75 -20.25 1377 0C1397.25 20.25 1377 40.5 1377 81C1377 101.83 1384.56 104.64 1377 122.66C1367.56 145.14 1343 142.02 1343 162C1343 182.87 1367.06 180.7 1377 204.37C1384.06 221.2 1377 223.69 1377 243C1377 283.5 1397.25 303.75 1377 324C1356.75 344.25 1336.5 324 1296 324C1270.93 324 1268.05 331.55 1245.86 324C1227.55 317.77 1230.43 296.43 1215 296.43C1199.57 296.43 1202.45 317.77 1184.14 324C1161.95 331.55 1159.07 324 1134 324C1093.5 324 1093.5 324 1053 324C1024.2 324 1021.59 330.81 995.4 324C981.09 320.28 984.72 302.94 972 302.94C955.47 302.94 955.99 319.04 936.9 324C915.49 329.57 913.95 324 891 324C850.5 324 850.5 324 810 324C799.06 324 788.66 332.48 788.11 324C786.02 291.98 797.04 283.61 804.72 243C807.98 225.76 807.2 208.29 810 208.29C812.81 208.29 804.86 230.61 815.93 243C845.36 275.95 857.66 298.96 891 298.96C915.71 298.96 918.76 274.22 932.04 243C947.89 205.74 937.92 201.69 949.26 162C957.9 131.73 958.28 131.23 972 103.09C978.03 90.73 988.76 92.44 988.76 81C988.76 67.89 985.67 59.41 972 54C936.79 40.07 926.42 34.07 891 42.31C868.41 47.57 871.15 59.89 855.97 81C830.65 116.22 833.87 118.7 810 154.96C807.21 159.2 807.05 159.49 802.64 162C766.55 182.53 767.47 197.01 729 201.04C690.15 205.11 680.11 167.27 648 178.2C618.48 188.25 629.17 212.41 605.74 243C588.67 265.3 591.23 272.1 567 283.97C531.36 301.43 526.94 298.37 486 301.66C445.94 304.88 436.57 313.63 405 297C380.89 284.3 394.69 265.71 374.63 243C354.19 219.87 349.9 205.33 324 205.33C295.66 205.33 291.33 220.4 266.14 243C250.83 256.75 256.85 278.03 243 278.03C225.64 278.03 203.73 260.51 203.73 243C203.73 225.49 226.82 228.24 243 207.97C259.15 187.74 253.02 183.13 268.39 162C293.52 127.46 293.71 126.33 324 96.63C335.01 85.83 344.24 94.06 351 81" stroke="rgba(255, 255, 255, 1)" stroke-width="2"></path><path d="M405 126.69C393.03 126.69 383.14 144.47 383.14 162C383.14 178.92 393.06 195.59 405 195.59C418.04 195.59 433.1 178.97 433.1 162C433.1 144.52 418.01 126.69 405 126.69" stroke="rgba(255, 255, 255, 1)" stroke-width="2"></path><path d="M1053 135.79C1037.61 135.79 1020 149.63 1020 162C1020 173.6 1037.4 183.73 1053 183.73C1065.62 183.73 1076.45 173.41 1076.45 162C1076.45 149.44 1065.84 135.79 1053 135.79" stroke="rgba(255, 255, 255, 1)" stroke-width="2"></path><path d="M55.9 243C77.31 208.14 64.12 162 81 162C99.51 162 126.69 202.5 126.69 243C126.69 283.5 103.84 283.5 81 324C81 324 81 324 81 324C40.5 324 29.52 334.98 0 324C-10.98 319.92 -7.96 305.42 0 293.88C19.99 264.92 36.81 274.08 55.9 243" stroke="rgba(255, 255, 255, 1)" stroke-width="2"></path><path d="M320.32 324C320.32 323.47 322.07 322.02 324 322.02C327.02 322.02 330.23 323.49 330.23 324C330.23 324.48 327.12 324 324 324C322.16 324 320.32 324.46 320.32 324" stroke="rgba(255, 255, 255, 1)" stroke-width="2"></path><path d="M648 45.9C631.73 45.9 611.76 14.17 611.76 0C611.76 -8.78 629.88 0 648 0C660.75 0 673.5 -7.5 673.5 0C673.5 15.45 662.6 45.9 648 45.9" stroke="rgba(255, 255, 255, 1)" stroke-width="2"></path><path d="M790.04 81C790.04 57.42 800.31 31.82 810 31.82C819.6 31.82 828.61 57.32 828.61 81C828.61 96.87 819.54 110.93 810 110.93C800.26 110.93 790.04 96.98 790.04 81" stroke="rgba(255, 255, 255, 1)" stroke-width="2"></path><path d="M891 12.09C871.8 12.09 852.43 3.09 852.43 0C852.43 -2.95 871.71 0 891 0C908.61 0 926.22 -2.94 926.22 0C926.22 3.11 908.69 12.09 891 12.09" stroke="rgba(255, 255, 255, 1)" stroke-width="2"></path><path d="M1060.04 81C1051.24 44.77 1065.8 26.92 1090.38 0C1102.78 -13.58 1112.19 0 1134 0C1143.24 0 1150.56 -7.52 1152.49 0C1160.93 32.98 1139.51 46.57 1154.74 81C1170.76 117.2 1178.79 125.87 1215 141.26C1249.42 155.89 1258.55 133.5 1296 141.04C1310.05 143.87 1308.13 150.48 1318 162C1348.63 197.72 1349.67 198 1377 235.52C1379.17 238.5 1377 239.26 1377 243C1377 257.29 1385.88 261.9 1377 271.59C1348.76 302.4 1340.45 299.61 1302.75 324C1299.95 325.81 1299.38 324 1296 324C1295.03 324 1294.79 324.63 1294.07 324C1254.29 289.3 1260.22 276.22 1215 253.34C1180.18 235.72 1174.5 248.17 1134 243C1134 243 1134 243 1134 243C1131.87 202.5 1145.7 196.95 1129.74 162C1108.72 115.95 1070.92 125.77 1060.04 81" stroke="rgba(255, 255, 255, 1)" stroke-width="2"></path><path d="M1364.96 81C1364.96 67.28 1373.88 51.3 1377 51.3C1379.9 51.3 1377 66.15 1377 81C1377 87.37 1379.53 93.73 1377 93.73C1373.51 93.73 1364.96 88.5 1364.96 81" stroke="rgba(255, 255, 255, 1)" stroke-width="2"></path><path d="M298.61 162C298.61 148.38 311.08 132.16 324 132.16C337.27 132.16 351 148.46 351 162C351 173.27 337.35 181.78 324 181.78C311.16 181.78 298.61 173.19 298.61 162" stroke="rgba(255, 255, 255, 1)" stroke-width="2"></path><path d="M474.43 162C474.43 141.58 470.83 123.22 486 121.5C517.11 117.97 526.5 136.5 567 151.5C581.17 156.75 593.09 149.66 595.35 162C601.46 195.41 594.65 204.97 583.73 243C580.48 254.32 577.88 260.69 567 260.69C536.06 260.69 527.61 259.02 500.09 243C487.11 235.45 490.9 229.02 486 213.55C478.07 188.52 474.43 187.61 474.43 162" stroke="rgba(255, 255, 255, 1)" stroke-width="2"></path><path d="M685.61 162C685.61 153.7 708.15 143.87 729 143.87C743.65 143.87 756.61 153.58 756.61 162C756.61 169.97 743.4 176.64 729 176.64C707.9 176.64 685.61 170.08 685.61 162" stroke="rgba(255, 255, 255, 1)" stroke-width="2"></path><path d="M959.04 243C959.04 220.88 955.5 198.44 972 196.71C1002.48 193.5 1010.79 221.06 1053 233.12C1091.79 244.2 1093.5 238.06 1134 243C1134 243 1134 243 1134 243C1134.97 283.5 1135.93 284.44 1135.93 324C1135.93 324.94 1134.97 324 1134 324C1093.5 324 1093.5 324 1053 324C1046.7 324 1045.28 327.71 1040.4 324C1004.78 296.93 1004.44 294.74 972 262.44C963.76 254.24 959.04 253.75 959.04 243" stroke="rgba(255, 255, 255, 1)" stroke-width="2"></path><path d="M0 319.85C4.14 319.85 11.17 322.93 11.17 324C11.17 325 4.07 325.51 0 324C-1.51 323.44 -1.44 319.85 0 319.85" stroke="rgba(255, 255, 255, 1)" stroke-width="2"></path></g><defs><mask id="SvgjsMask1000"><rect width="1372" height="324" fill="#ffffff"></rect></mask></defs></svg>